<mxfile host="Electron" agent="Mozilla/5.0 (X11; Linux x86_64) AppleWebKit/537.36 (KHTML, like Gecko) draw.io/26.2.2 Chrome/134.0.6998.178 Electron/35.1.2 Safari/537.36" version="26.2.2">
  <diagram name="Page-1" id="Hhh5Kx4GbDorqoG6dygU">
    <mxGraphModel dx="1191" dy="630" grid="1" gridSize="10" guides="1" tooltips="1" connect="1" arrows="1" fold="1" page="1" pageScale="1" pageWidth="850" pageHeight="1100" math="0" shadow="0">
      <root>
        <mxCell id="0" />
        <mxCell id="1" parent="0" />
        <mxCell id="pewo86qtNxPtT0lYpOGj-4" style="edgeStyle=orthogonalEdgeStyle;rounded=0;orthogonalLoop=1;jettySize=auto;html=1;" edge="1" parent="1" source="pewo86qtNxPtT0lYpOGj-5" target="pewo86qtNxPtT0lYpOGj-7">
          <mxGeometry relative="1" as="geometry" />
        </mxCell>
        <mxCell id="pewo86qtNxPtT0lYpOGj-5" value="Main" style="rounded=1;whiteSpace=wrap;html=1;arcSize=50;" vertex="1" parent="1">
          <mxGeometry x="365" y="50" width="120" height="60" as="geometry" />
        </mxCell>
        <mxCell id="pewo86qtNxPtT0lYpOGj-6" style="edgeStyle=orthogonalEdgeStyle;rounded=0;orthogonalLoop=1;jettySize=auto;html=1;" edge="1" parent="1" source="pewo86qtNxPtT0lYpOGj-7" target="pewo86qtNxPtT0lYpOGj-9">
          <mxGeometry relative="1" as="geometry" />
        </mxCell>
        <mxCell id="pewo86qtNxPtT0lYpOGj-7" value="Enter a string" style="shape=parallelogram;perimeter=parallelogramPerimeter;whiteSpace=wrap;html=1;fixedSize=1;" vertex="1" parent="1">
          <mxGeometry x="338" y="180" width="175" height="60" as="geometry" />
        </mxCell>
        <mxCell id="pewo86qtNxPtT0lYpOGj-8" style="edgeStyle=orthogonalEdgeStyle;rounded=0;orthogonalLoop=1;jettySize=auto;html=1;" edge="1" parent="1" source="pewo86qtNxPtT0lYpOGj-9" target="pewo86qtNxPtT0lYpOGj-11">
          <mxGeometry relative="1" as="geometry" />
        </mxCell>
        <mxCell id="pewo86qtNxPtT0lYpOGj-9" value="str" style="shape=parallelogram;perimeter=parallelogramPerimeter;whiteSpace=wrap;html=1;fixedSize=1;" vertex="1" parent="1">
          <mxGeometry x="365" y="280" width="120" height="60" as="geometry" />
        </mxCell>
        <mxCell id="pewo86qtNxPtT0lYpOGj-10" style="edgeStyle=orthogonalEdgeStyle;rounded=0;orthogonalLoop=1;jettySize=auto;html=1;" edge="1" parent="1" source="pewo86qtNxPtT0lYpOGj-11" target="pewo86qtNxPtT0lYpOGj-13">
          <mxGeometry relative="1" as="geometry" />
        </mxCell>
        <mxCell id="pewo86qtNxPtT0lYpOGj-11" value="r_str &amp;lt;-- empty string with length `len`" style="rounded=0;whiteSpace=wrap;html=1;" vertex="1" parent="1">
          <mxGeometry x="293" y="460" width="264.5" height="60" as="geometry" />
        </mxCell>
        <mxCell id="pewo86qtNxPtT0lYpOGj-12" style="edgeStyle=orthogonalEdgeStyle;rounded=0;orthogonalLoop=1;jettySize=auto;html=1;" edge="1" parent="1" source="pewo86qtNxPtT0lYpOGj-13" target="pewo86qtNxPtT0lYpOGj-16">
          <mxGeometry relative="1" as="geometry" />
        </mxCell>
        <mxCell id="pewo86qtNxPtT0lYpOGj-13" value="i = 0&amp;nbsp;" style="rounded=0;whiteSpace=wrap;html=1;" vertex="1" parent="1">
          <mxGeometry x="365" y="550" width="120" height="60" as="geometry" />
        </mxCell>
        <mxCell id="pewo86qtNxPtT0lYpOGj-14" style="edgeStyle=orthogonalEdgeStyle;rounded=0;orthogonalLoop=1;jettySize=auto;html=1;" edge="1" parent="1" source="pewo86qtNxPtT0lYpOGj-16" target="pewo86qtNxPtT0lYpOGj-19">
          <mxGeometry relative="1" as="geometry">
            <Array as="points">
              <mxPoint x="620" y="710" />
            </Array>
          </mxGeometry>
        </mxCell>
        <mxCell id="pewo86qtNxPtT0lYpOGj-15" style="edgeStyle=orthogonalEdgeStyle;rounded=0;orthogonalLoop=1;jettySize=auto;html=1;" edge="1" parent="1" source="pewo86qtNxPtT0lYpOGj-16" target="pewo86qtNxPtT0lYpOGj-23">
          <mxGeometry relative="1" as="geometry">
            <Array as="points">
              <mxPoint x="242" y="710" />
            </Array>
          </mxGeometry>
        </mxCell>
        <mxCell id="pewo86qtNxPtT0lYpOGj-16" value="str[i] != &#39;\0&#39;" style="rhombus;whiteSpace=wrap;html=1;" vertex="1" parent="1">
          <mxGeometry x="302" y="670" width="246" height="80" as="geometry" />
        </mxCell>
        <mxCell id="pewo86qtNxPtT0lYpOGj-17" value="True" style="text;html=1;align=center;verticalAlign=middle;whiteSpace=wrap;rounded=0;" vertex="1" parent="1">
          <mxGeometry x="548" y="670" width="60" height="30" as="geometry" />
        </mxCell>
        <mxCell id="pewo86qtNxPtT0lYpOGj-18" style="edgeStyle=orthogonalEdgeStyle;rounded=0;orthogonalLoop=1;jettySize=auto;html=1;" edge="1" parent="1" source="pewo86qtNxPtT0lYpOGj-19" target="pewo86qtNxPtT0lYpOGj-21">
          <mxGeometry relative="1" as="geometry" />
        </mxCell>
        <mxCell id="pewo86qtNxPtT0lYpOGj-19" value="r_str[i] = str[len]" style="rounded=0;whiteSpace=wrap;html=1;" vertex="1" parent="1">
          <mxGeometry x="530" y="780" width="180" height="60" as="geometry" />
        </mxCell>
        <mxCell id="pewo86qtNxPtT0lYpOGj-20" style="edgeStyle=orthogonalEdgeStyle;rounded=0;orthogonalLoop=1;jettySize=auto;html=1;entryX=0.5;entryY=0;entryDx=0;entryDy=0;" edge="1" parent="1" source="pewo86qtNxPtT0lYpOGj-21" target="pewo86qtNxPtT0lYpOGj-16">
          <mxGeometry relative="1" as="geometry">
            <Array as="points">
              <mxPoint x="620" y="1000" />
              <mxPoint x="760" y="1000" />
              <mxPoint x="760" y="650" />
              <mxPoint x="425" y="650" />
            </Array>
          </mxGeometry>
        </mxCell>
        <mxCell id="pewo86qtNxPtT0lYpOGj-21" value="i = i + 1&lt;div&gt;len = len - 1&lt;/div&gt;" style="rounded=0;whiteSpace=wrap;html=1;" vertex="1" parent="1">
          <mxGeometry x="560" y="900" width="120" height="60" as="geometry" />
        </mxCell>
        <mxCell id="pewo86qtNxPtT0lYpOGj-22" style="edgeStyle=orthogonalEdgeStyle;rounded=0;orthogonalLoop=1;jettySize=auto;html=1;" edge="1" parent="1" source="pewo86qtNxPtT0lYpOGj-23" target="pewo86qtNxPtT0lYpOGj-25">
          <mxGeometry relative="1" as="geometry" />
        </mxCell>
        <mxCell id="pewo86qtNxPtT0lYpOGj-23" value="r_str" style="shape=parallelogram;perimeter=parallelogramPerimeter;whiteSpace=wrap;html=1;fixedSize=1;" vertex="1" parent="1">
          <mxGeometry x="182" y="810" width="120" height="60" as="geometry" />
        </mxCell>
        <mxCell id="pewo86qtNxPtT0lYpOGj-24" value="Flase" style="text;html=1;align=center;verticalAlign=middle;resizable=0;points=[];autosize=1;strokeColor=none;fillColor=none;" vertex="1" parent="1">
          <mxGeometry x="252" y="680" width="50" height="30" as="geometry" />
        </mxCell>
        <mxCell id="pewo86qtNxPtT0lYpOGj-25" value="END" style="rounded=1;whiteSpace=wrap;html=1;arcSize=50;" vertex="1" parent="1">
          <mxGeometry x="182" y="920" width="120" height="60" as="geometry" />
        </mxCell>
        <mxCell id="pewo86qtNxPtT0lYpOGj-27" value="getLen(str)" style="rounded=0;whiteSpace=wrap;html=1;" vertex="1" parent="1">
          <mxGeometry x="365" y="370" width="120" height="60" as="geometry" />
        </mxCell>
        <mxCell id="pewo86qtNxPtT0lYpOGj-31" value="" style="edgeStyle=orthogonalEdgeStyle;rounded=0;orthogonalLoop=1;jettySize=auto;html=1;" edge="1" parent="1" source="pewo86qtNxPtT0lYpOGj-28" target="pewo86qtNxPtT0lYpOGj-29">
          <mxGeometry relative="1" as="geometry" />
        </mxCell>
        <mxCell id="pewo86qtNxPtT0lYpOGj-28" value="getLen" style="rounded=1;whiteSpace=wrap;html=1;arcSize=50;" vertex="1" parent="1">
          <mxGeometry x="1215" y="60" width="120" height="60" as="geometry" />
        </mxCell>
        <mxCell id="pewo86qtNxPtT0lYpOGj-44" style="edgeStyle=orthogonalEdgeStyle;rounded=0;orthogonalLoop=1;jettySize=auto;html=1;" edge="1" parent="1" source="pewo86qtNxPtT0lYpOGj-29" target="pewo86qtNxPtT0lYpOGj-34">
          <mxGeometry relative="1" as="geometry" />
        </mxCell>
        <mxCell id="pewo86qtNxPtT0lYpOGj-29" value="str" style="shape=parallelogram;perimeter=parallelogramPerimeter;whiteSpace=wrap;html=1;fixedSize=1;" vertex="1" parent="1">
          <mxGeometry x="1215" y="160" width="120" height="60" as="geometry" />
        </mxCell>
        <mxCell id="pewo86qtNxPtT0lYpOGj-32" style="edgeStyle=orthogonalEdgeStyle;rounded=0;orthogonalLoop=1;jettySize=auto;html=1;" edge="1" parent="1" source="pewo86qtNxPtT0lYpOGj-34" target="pewo86qtNxPtT0lYpOGj-37">
          <mxGeometry relative="1" as="geometry">
            <Array as="points">
              <mxPoint x="1468" y="350" />
            </Array>
          </mxGeometry>
        </mxCell>
        <mxCell id="pewo86qtNxPtT0lYpOGj-33" style="edgeStyle=orthogonalEdgeStyle;rounded=0;orthogonalLoop=1;jettySize=auto;html=1;" edge="1" parent="1" source="pewo86qtNxPtT0lYpOGj-34" target="pewo86qtNxPtT0lYpOGj-41">
          <mxGeometry relative="1" as="geometry">
            <Array as="points">
              <mxPoint x="1090" y="350" />
            </Array>
          </mxGeometry>
        </mxCell>
        <mxCell id="pewo86qtNxPtT0lYpOGj-34" value="str[i] != &#39;\0&#39;" style="rhombus;whiteSpace=wrap;html=1;" vertex="1" parent="1">
          <mxGeometry x="1150" y="310" width="246" height="80" as="geometry" />
        </mxCell>
        <mxCell id="pewo86qtNxPtT0lYpOGj-35" value="True" style="text;html=1;align=center;verticalAlign=middle;whiteSpace=wrap;rounded=0;" vertex="1" parent="1">
          <mxGeometry x="1396" y="310" width="60" height="30" as="geometry" />
        </mxCell>
        <mxCell id="pewo86qtNxPtT0lYpOGj-46" style="edgeStyle=orthogonalEdgeStyle;rounded=0;orthogonalLoop=1;jettySize=auto;html=1;entryX=0.5;entryY=0;entryDx=0;entryDy=0;" edge="1" parent="1" source="pewo86qtNxPtT0lYpOGj-37" target="pewo86qtNxPtT0lYpOGj-34">
          <mxGeometry relative="1" as="geometry">
            <Array as="points">
              <mxPoint x="1468" y="520" />
              <mxPoint x="1620" y="520" />
              <mxPoint x="1620" y="290" />
              <mxPoint x="1273" y="290" />
            </Array>
          </mxGeometry>
        </mxCell>
        <mxCell id="pewo86qtNxPtT0lYpOGj-37" value="len = len + 1" style="rounded=0;whiteSpace=wrap;html=1;" vertex="1" parent="1">
          <mxGeometry x="1378" y="420" width="180" height="60" as="geometry" />
        </mxCell>
        <mxCell id="pewo86qtNxPtT0lYpOGj-40" style="edgeStyle=orthogonalEdgeStyle;rounded=0;orthogonalLoop=1;jettySize=auto;html=1;" edge="1" parent="1" source="pewo86qtNxPtT0lYpOGj-41" target="pewo86qtNxPtT0lYpOGj-43">
          <mxGeometry relative="1" as="geometry" />
        </mxCell>
        <mxCell id="pewo86qtNxPtT0lYpOGj-41" value="len" style="shape=parallelogram;perimeter=parallelogramPerimeter;whiteSpace=wrap;html=1;fixedSize=1;" vertex="1" parent="1">
          <mxGeometry x="1030" y="450" width="120" height="60" as="geometry" />
        </mxCell>
        <mxCell id="pewo86qtNxPtT0lYpOGj-42" value="Flase" style="text;html=1;align=center;verticalAlign=middle;resizable=0;points=[];autosize=1;strokeColor=none;fillColor=none;" vertex="1" parent="1">
          <mxGeometry x="1100" y="320" width="50" height="30" as="geometry" />
        </mxCell>
        <mxCell id="pewo86qtNxPtT0lYpOGj-43" value="END" style="rounded=1;whiteSpace=wrap;html=1;arcSize=50;" vertex="1" parent="1">
          <mxGeometry x="1030" y="560" width="120" height="60" as="geometry" />
        </mxCell>
        <mxCell id="pewo86qtNxPtT0lYpOGj-45" value="len = 0" style="rounded=0;whiteSpace=wrap;html=1;" vertex="1" parent="1">
          <mxGeometry x="1245" y="240" width="60" height="40" as="geometry" />
        </mxCell>
      </root>
    </mxGraphModel>
  </diagram>
</mxfile>
